/* XPM */
static char *_7c8922bed3d44cdd758da6568d5f625jDOmaYh49MMGSMdk[] = {
/* columns rows colors chars-per-pixel */
"64 64 125 2 ",
"   c None",
".  c #5C0100",
"X  c #630505",
"o  c #6B0101",
"O  c #600807",
"+  c #770000",
"@  c #7C0101",
"#  c #6D1312",
"$  c #701716",
"%  c #731919",
"&  c #792122",
"*  c #830303",
"=  c #8A0101",
"-  c #960000",
";  c #9A0000",
":  c #841818",
">  c #8D1A1A",
",  c #A40000",
"<  c #AD0000",
"1  c #A60A0B",
"2  c #A9090A",
"3  c #B10000",
"4  c #BD0202",
"5  c #B70E0E",
"6  c #B90B0B",
"7  c #AA0F10",
"8  c #AC1615",
"9  c #A01F1F",
"0  c #AB1B1B",
"q  c #B01111",
"w  c #B11B1A",
"e  c #AD2423",
"r  c #AB2929",
"t  c #B12323",
"y  c #BF2020",
"u  c #B62827",
"i  c #B42C2B",
"p  c #BB2828",
"a  c #AF3F3F",
"s  c #B83131",
"d  c #C20101",
"f  c #CC0101",
"g  c #C50C0C",
"h  c #CA0D0D",
"j  c #D50000",
"k  c #DC0000",
"l  c #CF1212",
"z  c #CC1D1C",
"x  c #E10101",
"c  c #C32323",
"v  c #CE2424",
"b  c #C52828",
"n  c #CB2E2E",
"m  c #D12323",
"M  c #CA3736",
"N  c #D63535",
"B  c #D93737",
"V  c #D43A3A",
"C  c #B94242",
"Z  c #BA4848",
"A  c #B25C5C",
"S  c #BF6766",
"D  c #BC6868",
"F  c #CD4343",
"G  c #C74748",
"H  c #C94748",
"J  c #C74A4A",
"K  c #CD4A4A",
"L  c #D44B4B",
"P  c #DA4A4A",
"I  c #CA5354",
"U  c #D15D5E",
"Y  c #DE5D5C",
"T  c #E24646",
"R  c #E24748",
"E  c #C36463",
"W  c #D16263",
"Q  c #DB6666",
"!  c #D96867",
"~  c #DA7373",
"^  c #D97E7D",
"/  c #E06969",
"(  c #E17F7F",
")  c #E67F80",
"_  c #D58181",
"`  c #D98283",
"'  c #D78C8C",
"]  c #DD8F8F",
"[  c #DD9493",
"{  c #DA9897",
"}  c #DD9897",
"|  c #DB9E9D",
" . c #EC8281",
".. c #E98384",
"X. c #E98786",
"o. c #E88787",
"O. c #E48B8C",
"+. c #E08D8C",
"@. c #E18E8E",
"#. c #E08F8F",
"$. c #E18F8F",
"%. c #E28E8E",
"&. c #E38E8E",
"*. c #E28F8F",
"=. c #E38F8F",
"-. c #E58C8C",
";. c #E58D8D",
":. c #E68C8C",
">. c #E78D8D",
",. c #E78D8E",
"<. c #E48E8E",
"1. c #E58E8E",
"2. c #E58F8F",
"3. c #E88888",
"4. c #EA8D8E",
"5. c #E39090",
"6. c #E49090",
"7. c #E79090",
"8. c #E59291",
"9. c #E79090",
"0. c #E09E9E",
"q. c #EC9A99",
"w. c #E99E9D",
"e. c #DCA3A2",
"r. c #E2A4A3",
/* pixels */
"                                                                                                                                ",
"                                                                                                                                ",
"                                                                                                                                ",
"                                                                                                                                ",
"                                                                                                                                ",
"                                                                                                                                ",
"                                                                                                                                ",
"                                                                                                                                ",
"                                                                                                                                ",
"                                                                                                                                ",
"                                                                                                                                ",
"                                                                                                                                ",
"                                                                                                                                ",
"                                                                                                                                ",
"                                                                                                                                ",
"                                                                                                                                ",
"                                                                                                                                ",
"                                                                                                                                ",
"                                                    ' ^ 9 - ; , , , , ; ; o                                                     ",
"                                              0.[ #.<...t < < < < < < < 2 ; =                                                   ",
"                                          e.} ] +.<.#.;.W K 8 < < 2 , , , , < t Z                                               ",
"                                        r.] =.=.=.+.;.#.4.( w < < < , ; - ; , , 1 s                                             ",
"                                      [ =.O.=.=.+.=.+.=.2.( 8 < 3 < < , ; - ; , < < 7                                           ",
"                                      ] O.] =.=.=.+.=.=.=.( 8 , < < < , ; - ; ; < < 8                                           ",
"                                  a u u I 4.2.2.2.2.=.=.#._ : + + = , < < ; ; ; ; < < w r                                       ",
"                                  e , , 0 H J J G J ~ 2.] ^ $ . . o * - < , ; ; ; , < < 1                                       ",
"                                  e , - ; , , < < 2 C S D D # . . . . + , , ; - ; , < < 1                                       ",
"                                  t , - - ; , < < , * O O . . . . . . + < , ; - ; , < < 1                                       ",
"                                  t , ; - - , < < , @ . . . . . . . . + , < < ; ; , < < 1                                       ",
"                                  t , ; - - , < < , @ . . . . . . . . + < < < , ; , < < 1                                       ",
"                                  t , , ; ; , < 3 , @ . . . . . . . . + < < < < , < < < 1                                       ",
"                                  t < < < ; , < < , @ X . . . . . . . + , 3 < < < < 3 < 1                                       ",
"                                  t 3 3 3 3 3 < 3 , @ . . . . . . . . + < 3 < 3 3 3 3 3 1                                       ",
"                                  e 4 d f d 4 3 < , @ . . . . . . . . + , 3 3 4 f f f 4 1                                       ",
"                                  c d j j j d < 3 , @ . . . . . . . . + < < 3 d j j j f 6                                       ",
"                                  m j k j j d < < , + . . . . . . . . + , 3 3 d j j j j h                                       ",
"                                  v k x k j 4 3 < , @ . . . . . . . . + < 3 3 d j j k j g                                       ",
"                                  m k x k j d 3 3 , @ . . . . . . . . @ , < 3 d j k x k h                                       ",
"                                  v k x k j d < < , * . . . . . . % A E ! ! ! B f j k j g                                       ",
"                                  v k x k j d 3 < < - @ o . . . . & ` 6.6.5.6./ P R T T L                                       ",
"                                  L m k k j f 4 4 < < , * + + + + > U ~ 2.=.=.O.2.3.2.q.                                        ",
"                                      g j x j j d 3 3 < < < , < 2 < 2 p ..=.+.=.=.+.}                                           ",
"                                      5 j j j j f f 4 3 < < < < < 3 < w  .2.=.=.=.[ [                                           ",
"                                        M f j j j j f d 3 3 3 < 3 4 d l B Y 3.6.[ |                                             ",
"                                          M z f j j j j d 4 d 4 4 f j k f B ..w.                                                ",
"                                              b l f j j j j j j j j x x f V 6.                                                  ",
"                                                F 6 4 4 4 4 4 4 4 4 4 4 < s                                                     ",
"                                                      O                                                                         ",
"                                                                                                                                ",
"                                                                                                                                ",
"                                                                                                                                ",
"                                                                                                                                ",
"                                                                                                                                ",
"                                                                                                                                ",
"                                                                                                                                ",
"                                                                                                                                ",
"                                                                                                                                ",
"                                                                                                                                ",
"                                                                                                                                ",
"                                                                                                                                ",
"                                                                                                                                ",
"                                                                                                                                ",
"                                                                                                                                ",
"                                                                                                                                "
};
