/* XPM */
static char *ce7a1a098b14447f8aa82b444ad6f61916QyYUBl5RM0CzpR[] = {
/* columns rows colors chars-per-pixel */
"64 64 116 2 ",
"   c None",
".  c #1C202C",
"X  c #1D202C",
"o  c #1D212D",
"O  c #1E222D",
"+  c #1E222E",
"@  c #1F232E",
"#  c #1E222F",
"$  c #1F232F",
"%  c #1F242F",
"&  c #1F2330",
"*  c #1F2331",
"=  c #202430",
"-  c #202431",
";  c #202531",
":  c #202432",
">  c #212532",
",  c #212533",
"<  c #212632",
"1  c #212633",
"2  c #222632",
"3  c #222732",
"4  c #222733",
"5  c #232733",
"6  c #232833",
"7  c #232834",
"8  c #232835",
"9  c #242934",
"0  c #242835",
"q  c #242935",
"w  c #242936",
"e  c #252939",
"r  c #262B38",
"t  c #25293A",
"y  c #25293B",
"u  c #26293B",
"i  c #262A3B",
"p  c #272D38",
"a  c #262A3C",
"s  c #272B3C",
"d  c #272B3D",
"f  c #282D39",
"g  c #282E39",
"h  c #292E3A",
"j  c #292F3A",
"k  c #292F3B",
"l  c #282C3E",
"z  c #2A2F3F",
"x  c #2A303B",
"c  c #2A303C",
"v  c #2A2F40",
"b  c #2B3041",
"n  c #2A3042",
"m  c #2B3042",
"M  c #2A3142",
"N  c #2C3042",
"B  c #313849",
"V  c #32394A",
"C  c #323A4D",
"Z  c #323B4D",
"A  c #333B4D",
"S  c #323A4E",
"D  c #353C4E",
"F  c #363E4F",
"G  c #373F50",
"H  c #384051",
"J  c #394152",
"K  c #3A4152",
"L  c #3A4254",
"P  c #3B4254",
"I  c #424B56",
"U  c #434C56",
"Y  c #434C57",
"T  c #434C58",
"R  c #444C58",
"E  c #444D58",
"W  c #444D59",
"Q  c #454E5A",
"!  c #454E5B",
"~  c #47515C",
"^  c #48515D",
"/  c #48525D",
"(  c #48525E",
")  c #49535E",
"_  c #4C5762",
"`  c #4D5762",
"'  c #4D5763",
"]  c #4D5863",
"[  c #4E5863",
"{  c #4E5864",
"}  c #4E5965",
"|  c #4F5965",
" . c #4F5A65",
".. c #4F5A66",
"X. c #505A66",
"o. c #505B67",
"O. c #515B67",
"+. c #515C67",
"@. c #525D68",
"#. c #535E69",
"$. c #535F69",
"%. c #545E6A",
"&. c #545F6A",
"*. c #555F6A",
"=. c #55606B",
"-. c #57626D",
";. c #58626D",
":. c #58636D",
">. c #58636E",
",. c #59636E",
"<. c #59646E",
"1. c #59646F",
"2. c #5A646F",
"3. c #5D6772",
"4. c #5F6873",
"5. c #5F6973",
/* pixels */
"                                                                                                                                ",
"                                                                                                                                ",
"                                                                                                                                ",
"                                                                                                                                ",
"                                                                                                                                ",
"                                                                                                                                ",
"                                                                                                                                ",
"                                                                                                                                ",
"                                                                                                                                ",
"                                                                                                                                ",
"                                                                                                                                ",
"                                                                                                                                ",
"                                                                                                                                ",
"                                                                                                                                ",
"                                                                                                                                ",
"                                                                                                                                ",
"                                                                                                                                ",
"                                                                                                                                ",
"                                                                                                                                ",
"                                                                                                                                ",
"                                                                                                                                ",
"                                                                                                                                ",
"                                                                                                                                ",
"                                                                                                                                ",
"                                                    P J *.<.>.>.<.<.<.*.J P                                                     ",
"                                                    J F { @.@.*.*.@.@.{ F J                                                     ",
"                                            4.>.<.>.O.{ *.*.@.*.@.@.=.*.O.O.>.<.<.4.                                            ",
"                                            <.+.[ _ [ { _ _ _ { [ _ _ _ _ _ _ { +.<.                                            ",
"                                        4.>.=.[ x 9 9 9 t 9 9 9 9 9 9 9 9 9 9 l [ =.-.4.                                        ",
"                                        >.O.{ ~ 6 o o o o % o o & o & o o $ X 9 / [ +.<.                                        ",
"                                    3.-.*.[ x 7 % = t t d l t d d t t t t t o $ 8 l { @.-.3.                                    ",
"                                    >.@.O.^ 7 o = = d d t t t f t d N N l s = o o 9 ^ O.@.>.                                    ",
"                                    <.{ H V 6 = t t d d & * o * & 9 W W N l t t * & V H { 3.                                    ",
"                                    <.[ V M = = d l b c & o o o o 7 Y W b t l t = = b V { -.                                    ",
"                                    <.[ s & t d d b W W 7 . o o o o 9 6 * * t l t t = s _ -.                                    ",
"                                    <._ 6 % t l s l W W c = o o o o o o o * c N l s o 9 _ 3.                                    ",
"                                    <._ 9 * t t = = 9 f Y Y 6 o o o o o o 6 Y W b t * 9 _ -.                                    ",
"                                    <._ 9 & t d = = o 7 Y T f 7 o o o o = f T W b t o 9 _ 3.                                    ",
"                                    <._ 9 o t d = o o o 6 x ^ ^ 9 o o 6 Y Y f 7 d s & 7 _ >.                                    ",
"                                    <._ 9 & t t * o o o 9 x ^ ^ 9 o o 6 Y W = * t t * = _ 3.                                    ",
"                                    <._ 9 o d t * o o 8 I T f 5 o o o o 9 8 o = d t o 9 _ >.                                    ",
"                                    <._ 9 * t d = o o 0 R R 0 * * % o * o = o = t d * 9 _ -.                                    ",
"                                    <._ 9 * t l e d d d v v d t s t s t s t s t s s o 9 _ 3.                                    ",
"                                    <._ 9 o t t d e d d d d d d t t l l t t l l d t o 9 _ <.                                    ",
"                                    <._ 9 o * o * = d e * = d t = = t d * * t t * o o 9 ' 3.                                    ",
"                                    >._ 9 o o o o = e d * = t t * * d t = o d t = o o 9 _ -.                                    ",
"                                S S +._ 9 o t l t t d d t d d d d t d d d t l d d e o 9 _ O.S S                                 ",
"                                F A O.[ 9 o t l d d d d d d d d d d d d d d d d d d o 9 _ { S F                                 ",
"                                A A O._ 5 $ d s s s s s d d d d d d d d d d d d s t o 9 _ { A F                                 ",
"                                F A O._ 9 o t s d t s s d d t d d e d e d d t d s d = 9 _ O.A A                                 ",
"                                A A O._ 9 o s d * * d d s d * * o * * * d d * * d d $ 9 _ O.F A                                 ",
"                                J F O._ 9 $ t s * * e d s t * o o . o * e e o * t t o 5 _ O.F J                                 ",
"                                @.O.@._ 9 o t d y e * = d d e e o o t t = = d d s d o 0 _ +.O.*.                                ",
"                                :.*.=._ 9 & t l d y * o e y d d * * t t o * e d s d o 9 _ =.+.<.                                ",
"                                -.@.@._ 9 & t d * * o o * * t d t t * * o o o * d t * 9 _ @.@.:.                                ",
"                                <.@.*.[ 9 * t d * o o o o * e d s t * o o o o * d d o 9 [ =.@.:.                                ",
"                                :.+.=.[ 9 o t l d e o * e e * * d s t t o * e t d t * 9 [ @.*.:.                                ",
"                                :.=.+.[ 9 o t d y e * * y e * o t d d d = * e d d t o 9 [ *.@.-.                                ",
"                                ;.+.*._ 9 o d d * * y e * # o o o = d d d t * * t d * 9 _ *.@.<.                                ",
"                                ;.*.@._ 9 & t d * * y d * o * o o = t d d t * * d d o 9 _ @.@.<.                                ",
"                                >.+.*._ 8 o d d d e d d e d e d d y d d d d t t d t % 9 [ @.@.-.                                ",
"                                -.*.@.[ 0 * e d d d d d d d d d d d d d d d s s d d o 9 [ @.*.<.                                ",
"                                >.@.*._ 9 o e d d d d d d d d d d d d d d d s s d t o 9 [ +.*.-.                                ",
"                                -.*.@._ 9 * d d d d d d d d d d d d d d d d d v l t & 9 [ @.@.>.                                "
};
