/* XPM */
static char *_b12428fde814802c760d3ef623c21424S18yYajsdoOHIi4[] = {
/* columns rows colors chars-per-pixel */
"64 64 188 2 ",
"   c #47383E",
".  c #514047",
"X  c #503F46",
"o  c #503E45",
"O  c #4F3E45",
"+  c #503E46",
"@  c #4F3C44",
"#  c #4D3A42",
"$  c #4C3941",
"%  c #4B3840",
"&  c #513F47",
"*  c #513F46",
"=  c #4E3B43",
"-  c #4F3D44",
";  c #4E3C43",
":  c #514147",
">  c #4E3C44",
",  c #4F3D45",
"<  c #524148",
"1  c #514148",
"2  c #46363D",
"3  c #44353B",
"4  c #44333A",
"5  c #4D3B43",
"6  c #4D3B42",
"7  c #433239",
"8  c #4C3A42",
"9  c #423138",
"0  c #4C3841",
"q  c #4D3941",
"w  c #4D3942",
"e  c #4E3A43",
"r  c #45343B",
"t  c #46363C",
"y  c #47373E",
"u  c #55464D",
"i  c #56474E",
"p  c #4F4149",
"a  c #30374A",
"s  c #323A4D",
"d  c #4E5865",
"f  c #545F6A",
"g  c #53454C",
"h  c #51454D",
"j  c #333B4D",
"k  c #363D4F",
"l  c #4E5864",
"z  c #535E69",
"x  c #53444C",
"c  c #4E3D44",
"v  c #53434B",
"b  c #4F5964",
"n  c #4F5965",
"m  c #53444B",
"M  c #52434A",
"N  c #575C66",
"B  c #545A64",
"V  c #515C67",
"C  c #262B37",
"Z  c #272C38",
"A  c #565C65",
"S  c #4B3740",
"D  c #54454C",
"F  c #54454D",
"G  c #56606B",
"H  c #4E5863",
"J  c #4B5560",
"K  c #1D212D",
"L  c #1E222F",
"P  c #4B373F",
"I  c #585C66",
"U  c #555C66",
"Y  c #545E69",
"T  c #252A36",
"R  c #1F232F",
"E  c #202430",
"W  c #262A3B",
"Q  c #595D67",
"!  c #575F69",
"~  c #4E5965",
"^  c #1E222E",
"/  c #202431",
"(  c #212532",
")  c #272B3D",
"_  c #272B3C",
"`  c #2B3041",
"'  c #57606A",
"]  c #535F69",
"[  c #343C4E",
"{  c #343B4D",
"}  c #1F2330",
"|  c #262A3C",
" . c #252936",
".. c #444D59",
"X. c #434B58",
"o. c #2A2E40",
"O. c #4C3A41",
"+. c #2E3446",
"@. c #2D3345",
"#. c #282C3E",
"$. c #2D3243",
"%. c #2C3041",
"&. c #232834",
"*. c #424B56",
"=. c #414955",
"-. c #282D3D",
";. c #575F6A",
":. c #47393E",
">. c #202531",
",. c #1F2430",
"<. c #49535F",
"1. c #464F5B",
"2. c #222632",
"3. c #212632",
"4. c #272B3E",
"5. c #292E3E",
"6. c #454E59",
"7. c #434B56",
"8. c #2B313C",
"9. c #252A35",
"0. c #2C3141",
"q. c #2E3344",
"w. c #272C3D",
"e. c #212631",
"r. c #242935",
"t. c #242934",
"y. c #454F5A",
"u. c #4B5460",
"i. c #292D3F",
"p. c #48525D",
"a. c #232833",
"s. c #282E39",
"d. c #47515C",
"f. c #252935",
"g. c #232733",
"h. c #565E69",
"j. c #4C5661",
"k. c #4D5762",
"l. c #262B36",
"z. c #4A535E",
"x. c #212531",
"c. c #434C57",
"v. c #46505B",
"b. c #262C38",
"n. c #1D222D",
"m. c #49525D",
"M. c #565F69",
"N. c #555D68",
"B. c #25293A",
"V. c #555E68",
"C. c #565F6A",
"Z. c #4B3D47",
"A. c #343749",
"S. c #2F364A",
"D. c #34374A",
"F. c #4B3E48",
"G. c #493C46",
"H. c #2F3649",
"J. c #4B3E47",
"K. c #483B45",
"L. c #343748",
"P. c #483943",
"I. c #333748",
"U. c #4C3840",
"Y. c #473842",
"T. c #202432",
"R. c #373A4A",
"E. c #1F2331",
"W. c #25293B",
"Q. c #373B4B",
"!. c #4C3E47",
"~. c #4E535F",
"^. c #252939",
"/. c #4E545F",
"(. c #50424A",
"). c #4D4048",
"_. c #525963",
"`. c #242839",
"'. c #50434B",
"]. c #50424B",
"[. c #4E414A",
"{. c #4F424A",
"}. c #525964",
"|. c #262A3A",
" X c #50444B",
".X c #535964",
"XX c #50444C",
"oX c #535A64",
/* pixels */
"  . . . . . . . . . . . . . . . . X X o O O O o o X X . . . . . . . . . . X + @ # $ % % % % $ # @ + . . . . . . . . . . . . . . ",
"  . . . . . . . . . . . . . . . . . . . . & & . . . . . . . . . . . . . . * + @ # $ % % % % $ = - X . . . . . . . . . . . . . . ",
"  . . . . . . . . . . . . . . . . . . . . . . . . . . . . . . . . . . . . & X - = # $ $ $ $ # ; O & . . . . . . . . . . . . . . ",
"  . . . . . . . . . . . . . . . . . . . . : : . . . . . . . . . . . . . . . & O - > = = = = > , + & . . . . . . . . . . . . . . ",
"  . . . . . . . . . . . . . . . . . . . . . . . . . . . . . . . . . . . . . . X X o O O O O o X X . . . . . . . . . . . . . . . ",
"  . . . . . . . . . . . . . . . . . . . . . . . . . . . . . . . . . . . . . . . . * X X X * . . . . . . . . . . . . . . . . . . ",
"  . . . . . . . . . . . . . . . . . . . . . . . . . . . . . . . . . . . . . . . . . . . . . . . . . . . . . . . . . . . . . . . ",
"  . . . . . . . . . . . . . . . . . . . . . . . . . . . . . . . . . . . . . . . : < < < 1 . . . . . . . . . . . . . . . . . . . ",
"  . . . . . . . . . . . . . . . . . . . . . . . . . . . . . . . . . . . . . . . 1 < < 1 1 . . . . . . . . . . . . . . . . . . . ",
"  . . . . . . . . . . . . . . . . . . . . . . . . . . . . . . . . . . . . . . . . 1 1 . . . . . . . . . . . . . . . . . . . . . ",
"  . . . . . . . . . . . . . . . . . . . . . . . . . . . . . . . . . . . . . . . . . . . . . . . . . . . . . . . . . . . . . . . ",
"2 o + X X . . . . . . . . . . . . . . . . . . . . . . . . . . . . . . . . . . X X o X X . . . . . . . . . . . . . . . . . . . . ",
"3 ; @ , o . . . . . . . . . . . . . . . . . . . . . . . . . . . . . . . . . & O - ; - O X . . . . . . . . . . . . . . . . . . . ",
"4 # 5 ; O * . . . . . . . . . . . . . . . . . . . . . . . . . . . . . . . & X - 5 6 6 ; O & . . . . . . . . . . . . . . . . . . ",
"7 $ # ; - X . . . . . . . . . . . . . . . . . . . . . . . . . . . . . . . X X - 5 $ 8 ; O X . . . . . . . . . . . . . . . . . . ",
"9 % $ 6 > + . . . . . . . . . . . . . . . . . . . . . . . . . . . . . . . * X - 5 # 6 > O * . . . . . . . . . . . . . . . . . . ",
"9 % $ # > + . . : . . . . . . . . . . . . . . . . . . . . . . . . . . . . . * O ; ; ; - o . . . . . . . . . . . . . . . . . . . ",
"9 % $ # > + . . : . . . . . . . . . . . . . . . . . . . . . . . . . . . . . . X o - o X X . . . . . . . . . . . . . . . . . . . ",
"9 0 $ # - X . . . . . . . . . . . . . . . . . . . . . . . . . . . . . . . . . . * * * . . . . . . . . . . . . . . . . . . . . . ",
"7 q w = , * . . . . . . . . . . . . . . . . . . . . . . . . . . . . . . . . . . . . . . . . . . . . . . . . . . . . . . . . . . ",
"4 e = > o . . . . . . . . . . . . . . . . . . . . . . . . . . . . . . . . . . . . . . . . . . . . . . . . . . . . . . . . . . . ",
"r @ - o X . . . . . . . . . . . . . . . . . . . . . . . . . . . . . . . . . . . . . . . . . . . . . . . . . . . . . . . . : . . ",
"t o + X * . . . . . . . . . . . . . . . . . . . . . . . . . . . . . . . . . . . . . . . . . . . . . . . . . . . . . . . : : . . ",
"y * & . . . . . . . . . . . . . . . . . . . . . . < u u i i i i i i i i u u < . . . . . . . . . . . . . . . . . . . . . . . . . ",
"  . . . . . . . . . . . . . . . . . . . . . . . . p a s d f f f f f f d s a p . . . . . . . . . . . . . . . . . . X X X + + + X ",
"  . . . . . . . . . . . . . . . . . . . . . g g g h j k l z z z z z z l k j h g g x . . . . . . . . . . . . . . X O O , , , , O ",
"  . . . . . . . . . . . . . . . . . . . . . f f f z z z z z z z z z z z z z z f f f . . . . . . . . . . . . . . o c ; 5 5 5 5 ; ",
"  . . . . . . . . . . . . . . . . . . . v v z z b n n n n n n n n n n n n n n b z z m M . . . . . . . . . . . * O ; # $ $ $ $ 8 ",
"  . . . . X X X X X X X X . . . . . . . N B z V C Z Z Z Z Z Z Z Z Z Z Z Z Z Z C V z B A . . . . . . . . . : . X , 5 8 % % S % $ ",
"  . . X X O O , , , O O O X . . . . D F G z H J K K L L L L L L L L L L L L K K J H z G F D . . . . . . . : . X , 5 $ % P P % $ ",
"  . . X X , > > = = > c O X . . . . I U Y z T T R E W W W W W W W W W W W W L K T T z Y U Q . . . . . . . : . X , 5 $ % P P % $ ",
"  . . X o > = = # # = = - o . . . : ! z n ~ K ^ / ( ) ) W W W W W _ ` ` ) ) / L K K ~ n z ' . . . . . . . : . X , 5 $ % S S % $ ",
"  . . o , = # $ $ $ $ # > , * . . : ' ] [ { R } | | ) | / L L L L  ...X.o.) W W ^ K j [ ] ' . . . . . . . . . X O ; 8 $ 0 0 $ $ ",
"  . * O - 6 $ 0 % % 0 O.; - X . . . ' f +.@./ ( ) #.$.%./ K K K K &.*.=.-.W ) ) } } @.+.f ;.. . . . . . . . . * o > 6 8 $ $ $ 8 ",
":.. X , > # $ % S S % $ 5 c X . . X ' f >.,.| _ ) ` <.1.T K K K K ^ 2.3.R L | ) | | ,.>.f ;.. . . . . . . . . . o - c ; 5 5 5 ; ",
":.. X , > # $ % P P % $ 5 - X . . X ' f R ^ 4.) W 5.6.7.8.9.^ K K K K K K K 0.q.w.4.^ R f ;.. . . . . . . . . . X O O O , , , O ",
"  . X O > # $ % S % % $ = - X . . o ;.f R ^ 4.) E / e.r.7.6.t.K K K K K K K y.u.i.4.^ R f ' . . . . . . . . . . . X X X X X X X ",
"  . * o - 5 8 $ $ $ $ # ; O * . * - ;.f R ^ 4.) R R K e.6.p.r.K K K K K K K p.H o.4.^ R f ' . . . . . . . . . . . . . . . . . . ",
"  . . X O c ; = 5 5 = ; - o . . X - ! f R ^ 4.) ^ ^ K ^ a.s.d.d.&.K K f.6.p.Z g.) 4.^ R f ' . . . . . . . . . . . . . . : : : . ",
"  . . X o O - - > - - - o X . & X c h.f R ^ 4.) K K K K R r.j.k.r.K K l.z.H g.K ) 4.^ R f ' . . . . . . . . . . . . . . . . . . ",
"  . . . X X X X + X X X . . . * X c h.f R ^ 4.) K K K x.c.v.b.E n.K K ^ E E K K ) 4.^ R f ' . . . . . . . . . . . . . . . . . . ",
"  . . . . . . . . . . . . . . * X - h.f R ^ 4.) K K K e.6.m.r.K K K K K K K K K ) 4.^ R f ;.. . . . . . . . . . . . . . . . . . ",
"  . . . . . . . 1 1 1 1 < < . . * O h.f R ^ 4.) ) ) ) ) ) #.) ) ) ) ) ) ) ) ) ) ) 4.^ R f M.. . . . . . . . . . . . . . . . . . ",
"  . . . . . . . 1 1 < < < < 1 . . o h.f R ^ ) ) ) ) ) ) ) ) ) ) ) ) ) ) ) ) ) ) ) ) ^ R f M.. . . . . . . . . . . . . . . . . . ",
"  . . . . . . . : 1 < < < < 1 . . & N.f R K K K K L ) | } L W W L } | B.^ K | #.^ K K R f M.. . . . . . . . . . . . . . . . . . ",
"  . . . . . . . . . . : : : . 1 m D V.f R K L L L } ) | / } W W } / | W } L | ) L L K R f C.D m < . . . . . . . . . . . . . . . ",
"  . . . . . . . . . * * X X * Z.A.S.V f R ^ 4.4.4.) ) ) ) ) ) ) ) ) ) ) ) 4.) ) ) 4.^ R f V S.D.F.. . . . . . . . . . . . . . . ",
"  . . . . . . . X o o , - - , G.A.H.V f R ^ 4.) ) ) ) ) ) ) ) ) ) ) ) ) ) ) ) ) ) 4.^ R f V H.A.J.. . . . . . . . . . . . . . . ",
"  . . . . . . . + , > ; = = ; K.L.H.V f R ^ 4.) ) ) ) ) ) ) ) ) ) ) ) ) ) ) ) ) ) 4.^ R f V H.A.J.. . . . . . . . . . . . . . . ",
"  . . . . . . * , ; # O.$ $ O.P.I.H.V f R ^ 4.) | | ) ) ) ) | | | | | | ) ) | | ) 4.^ R f V H.A.J.. . . . . . . . . . . . . . . ",
"  . . . . . . * , = $ U.% % U.Y.I.H.V f R ^ 4.) } / ) ) ) | T.} } } } T.| ) / } ) 4.^ R f V H.A.J.. . . . . . . . . . . . . . . ",
"  . . . . . . + @ # $ % S S % P.R.j V f R ^ 4.) L E.| | ) | / L K K L / W.| E.L ) 4.^ R f V j Q.J.. . . . . . . X X X o O O O o ",
"  . . . : : . + > # $ % P P % !.~.~ z f R ^ 4.) W B.} E.W ) W ^.L R B.^.} } B.W ) 4.^ R f z ~ /.(.. . . . . . . X O - > ; ; ; > ",
"  . . . . . . + > # $ % % % % )._.z z f R ^ 4.) W B.K ^ `.W ) W / / B.`.^ K B.W ) 4.^ R f z z _.'.* . . 1 . . & + c = 6 # # 6 = ",
"  . . . . . . X - 5 8 $ $ $ $ )._.z z f R ^ 4.) L L K K L E.W ) | B.} L K K L L ) 4.^ R f z z _.].+ . 1 < 1 . * O ; # $ $ $ $ $ ",
"  . . . . . . * O ; 5 # # # # [._.z z f R ^ 4.) } R K K L / ^.W ) W / L K K R } ) 4.^ R f z z _.'.X . 1 < < . X , = $ U.% % % $ ",
"  . . . . . . . + - c ; 5 6 5 {.}.z z f R ^ 4.) | B.K ^ ^.|.E.E.W ) | ^.^ K B.| ) 4.^ R f z z }. X. . : 1 < . X , 5 $ % S S % $ ",
"  . . . . . . . X o O O , - ,  X.Xz z f R ^ 4.) B.^.} / `.^.L L `.W ) W / } ^.B.) 4.^ R f z z }.XX. . . : 1 . X , 5 $ % P P % $ ",
"  . . . . . . . . . X X X X X XX.Xz z f R ^ 4.) ^ } _ W E.^ K K ^ E.| ) _ _ } ^ ) 4.^ R f z z .Xh . . . . : . X , = # % % % % $ ",
"  . . . . . . . . . . . . . . h oXz z f R ^ 4.) K R ) | } K K K K } | ) ) ) R K ) 4.^ R f z z oXh . . . . . . * O ; 6 $ $ $ $ 8 ",
"  . . . . . . . . . . . : : . h oXz z f R ^ 4.) | _ ) ) _ _ _ _ _ _ ) ) ) ) _ | ) 4.^ R f z z oXh . . . . . . . + - ; 5 5 5 5 ; ",
"  . . . . . . . . . . . . . . h oXz z f R ^ 4.) ) ) ) ) ) ) ) ) ) ) ) ) ) ) ) ) ) 4.^ R f z z oXh . . . . . . . X + O - > > > - ",
"  . . . . . . . . . . . . . . h oXz z f R ^ 4.) ) ) ) ) ) ) ) ) ) ) ) ) ) ) ) ) ) 4.^ R f z z oXh . . . . . . . . & * X + + + X ",
"  . . . . . . . . . . . . . . h oXz z f R ^ 4.) ) ) ) ) ) ) ) ) ) ) ) ) ) ) ) ) ) 4.^ R f z z oXh . . . . . . . . . . . . . . . "
};
