/* XPM */
static char *result[] = {
/* columns rows colors chars-per-pixel */
"64 64 29 1 ",
"  c #4B373F",
". c #4B3740",
"X c #4B3840",
"o c #4C3840",
"O c #4C3841",
"+ c #4C3941",
"@ c #4D3941",
"# c #4C3A41",
"$ c #4D3942",
"% c #4C3A42",
"& c #4D3A42",
"* c #4D3B42",
"= c #4D3B43",
"- c #4E3B43",
"; c #4E3C43",
": c #4E3C44",
"> c #4E3D44",
", c #4F3D44",
"< c #4F3D45",
"1 c #4F3E45",
"2 c #503E45",
"3 c #503E46",
"4 c #503F46",
"5 c #513F46",
"6 c #513F47",
"7 c #514047",
"8 c #514147",
"9 c #514148",
"0 c #524148",
/* pixels */
"777777777777774<=+XXXX+=<47777777751-#+XX+#-15777777777777777777",
"777777777777775<-+XXXX+-<57777777751-#+XX+#-15777777777777777777",
"7777777777777761;&++++&;167777777751-#+XX+#-15777777777777777777",
"7777777777777773,;-==-;,37777777775<-+XXXX+-<5777777777777777777",
"7777777777777774421<<12447777777774<=+XXXX+=<4777777777777777777",
"77777777777777777776677777777777775<-+XXXX+-<5777777777777777777",
"777777777777777777777777777777777761;&++++&;16777777777777777777",
"777777777777777777788777777777777773<:----:<37777777777777777777",
"7777777777777777777777777777777777744211112447777777777777777777",
"7777777777777777777777777777777777777777777777777777777777777777",
"7777777777777777777777777777777777777777777777777777777777777777",
"7777777777777777777777777777777777778000977777777777777777777777",
"7777777777777777777777777777777777777999777777777777777777777777",
"7777777777777777777777777777777777777777777777777777777777777777",
"4444777777777777777777777777777777774444777777777777777777777777",
",,<2477777777777777777777777777777741,,1477777777777777777777777",
"&*-,27777777777777777777777777777761;**;167777777777777777777777",
"++&;1577777777777777777777777777774<=++=<47777777777777777777777",
"XX+=<4777777777777777777777777777751-&&-157777777777777777777777",
"XX+=<4787777777777777777777777777772,;;,277777777777777777777777",
"XX+=<47877777777777777777777777777744224477777777777777777777777",
"oO+-157777777777777777777777777777777557777777777777777777777777",
"@$&:277777777777777777777777777777777777777777777777777777777777",
"--;<477777777777777777777777777777777777777777777777777777777777",
",<24577777777777777777777777777777777777777777777777777887777777",
"5567777777777777777777777777777777777777777777777777777777777777",
"7777777777777777777777777777777777777777777777777777444444447777",
"777777777777777777777777777777777777777777777777777411<<<<114777",
"7777777777777777777777777777777777777777777777777772>;====;>2777",
"7777777777777777777777777777777777777777777777777751-%++++%-1577",
"777744444444777777777777777777777777777777777777874<=+X..X+=<478",
"777411<<<<11477777777777777777777777777777777777874<=+X  X+=<478",
"7774<:----:<477777777777777777777777777777777777874<=+X  X+=<478",
"7772:*&++&*:277887777777777777777777777777777777874<=+X..X+=<478",
"7751-#+XX+#-1577776666777777777777777777777777777751-%++++%-1577",
"874<=+X..X+=<57742<<<<246777777777777777777777777772>;====;>2777",
"874<=+X  X+=17742;-**-;<477777777777777777777777777411<<<<114777",
"774<=+X..X+-1774,*&++&&:2777777777777777777777777777444444447777",
"7751-%++++&;2772;#+XX++-1577777777777777777777777777777777777777",
"7772>;-==-;,4771-+X..X+=<478777777777777777777777777777887777777",
"7774111<<1146761=+X  X+=<478777777777777777777777777777777777777",
"777744444447775<=+XXXX+=<477777777777777777777777777777777777777",
"7777777777777751;&++++&;1577777777777777777777777777777777777777",
"7777777999900772,-****-,2777777777777777777777777777777777777777",
"77777778900009742<,,,,<24777777777777777777777777777777777777777",
"7777777777888777644444447777777777777777777777777777777777777777",
"7777777777777777777777777777777777777777777777777777777777777777",
"7777777442211234779997777777777777777777777777777777777777777777",
"77777774<:;--;:<478987777777777777777777777777777777777777777777",
"77777762:&#++#&:277777777777777777777777777777777777777777777777",
"7777775<-+oXXo+-<57777777777777777777777777777777777777777777777",
"7777874<=+X..X+=<47877777777777777777774311347777774421111244777",
"7777874<=+X  X+=<47877777777777777777772,--,27777774<:;--;:<4777",
"7777774<=+XXXX+=<4777777777777777777775<-%%-<5799761;&++++&;1677",
"77777751;&++++&;15777777777777777777774<=++=<470075<-+oXXo+-<577",
"77777773,;=**=;,377777777777777777777772:==:2779074<=+X..X+=<478",
"7777777421<,,<124777777777777777777777741,,14778974<=+X  X+=<478",
"777777777444444777777777777777777777777754457777874<-+XXXX+-<477",
"7777777777777777777777777777777777777777777777777751;&++++&;1577",
"7777777777788777777777777777777777777777777777777773,;=**=;,3777",
"777777777777777777777777777777777777777777777777777431<<<<134777",
"7777777777777777777777777777777777777777777777777777754444577777",
"7777777777777777777777777777777777777777777777777777777777777777",
"7777777777777777777777777777777777777777777777777777777887777777"
};
