/* XPM */
static char *_aac656cd1224e11f1da91645840e5377DefBvxYSpYaspd8[] = {
/* columns rows colors chars-per-pixel */
"64 64 221 2 ",
"   c #080607",
".  c #090909",
"X  c #040403",
"o  c #100D0C",
"O  c #0E130F",
"+  c #18120B",
"@  c #0E0D14",
"#  c #0E1814",
"$  c #151414",
"%  c #1D1B1B",
"&  c #1B1715",
"*  c #110F10",
"=  c #2D1E0A",
"-  c #291D18",
";  c #1C2619",
":  c #192217",
">  c #2A2318",
",  c #3B2919",
"<  c #3D2607",
"1  c #181628",
"2  c #1A1831",
"3  c #1E1C3A",
"4  c #251E21",
"5  c #211E34",
"6  c #1B2924",
"7  c #242424",
"8  c #292225",
"9  c #2D2529",
"0  c #2D2C2D",
"q  c #2A2F26",
"w  c #332A2E",
"e  c #3B2D2C",
"r  c #352926",
"t  c #26382C",
"y  c #362C31",
"u  c #3A2E33",
"i  c #323232",
"p  c #3D3035",
"a  c #3C3B3B",
"s  c #3B343A",
"d  c #2F3532",
"f  c #4F3307",
"g  c #563406",
"h  c #5E3016",
"j  c #5C321C",
"k  c #4C2E0F",
"l  c #612B07",
"z  c #693B0E",
"x  c #661923",
"c  c #473329",
"v  c #58382B",
"b  c #403335",
"n  c #43353B",
"m  c #4B373F",
"M  c #47383E",
"N  c #49383F",
"B  c #463B33",
"V  c #543C3A",
"C  c #573B35",
"Z  c #653F27",
"A  c #3B5636",
"S  c #314830",
"D  c #664409",
"F  c #7C430D",
"G  c #6C451F",
"H  c #744215",
"J  c #435C3E",
"K  c #4F433B",
"L  c #62432E",
"P  c #6D4E31",
"I  c #42613A",
"U  c #665716",
"Y  c #262248",
"T  c #2C2857",
"R  c #393447",
"E  c #4B3740",
"W  c #4D3B42",
"Q  c #433F41",
"!  c #503F46",
"~  c #4D3B51",
"^  c #643847",
"/  c #38574B",
"(  c #3C6A59",
")  c #434343",
"_  c #4C4B4C",
"`  c #4B4749",
"'  c #514047",
"]  c #524148",
"[  c #514E4F",
"{  c #4A5847",
"}  c #544851",
"|  c #555555",
" . c #5B5B5B",
".. c #6E544A",
"X. c #4A6943",
"o. c #55764D",
"O. c #7A6757",
"+. c #6F614D",
"@. c #675D62",
"#. c #58786C",
"$. c #4B7263",
"%. c #646464",
"&. c #6B6B6B",
"*. c #686A66",
"=. c #747474",
"-. c #7C7C7C",
";. c #647162",
":. c #AB093E",
">. c #895409",
",. c #8D5A17",
"<. c #935C16",
"1. c #8C560A",
"2. c #9F7317",
"3. c #9B610F",
"4. c #A36816",
"5. c #A67316",
"6. c #AA7613",
"7. c #835634",
"8. c #8F682C",
"9. c #A16724",
"0. c #A8722D",
"q. c #805A40",
"w. c #916547",
"e. c #AB794A",
"r. c #BD7E55",
"t. c #BA7B4E",
"y. c #977C6B",
"u. c #82786F",
"i. c #57834E",
"p. c #5B8552",
"a. c #609156",
"s. c #618959",
"d. c #6AA05F",
"f. c #5D937F",
"g. c #5C8D7A",
"h. c #7A9575",
"j. c #6D9465",
"k. c #75A56B",
"l. c #6EA064",
"z. c #B7881A",
"x. c #B5882B",
"c. c #CA982D",
"v. c #D4A233",
"b. c #DCAC37",
"n. c #D5B333",
"m. c #E6BC3A",
"M. c #E2B638",
"N. c #EBCB36",
"B. c #F2D539",
"V. c #F7DF39",
"C. c #EAD232",
"Z. c #FEED3A",
"A. c #F9E438",
"S. c #BA875A",
"D. c #82977E",
"F. c #81A07B",
"G. c #B58F72",
"H. c #CE8F53",
"J. c #E4B351",
"K. c #C38764",
"L. c #D59065",
"P. c #E89B67",
"I. c #E4AC68",
"U. c #FFF14C",
"Y. c #FFF045",
"T. c #FFF153",
"R. c #FBE950",
"E. c #FFF261",
"W. c #FAE861",
"Q. c #649A86",
"!. c #77A996",
"~. c #73B099",
"^. c #848484",
"/. c #8C8C8C",
"(. c #878B86",
"). c #9D9C9C",
"_. c #939393",
"`. c #8F9485",
"'. c #8BA685",
"]. c #8DB185",
"[. c #9BA399",
"{. c #97B491",
"}. c #A1BA9C",
"|. c #8FBFAD",
" X c #A4A4A4",
".X c #ACACAC",
"XX c #ABB8A8",
"oX c #B4B4B4",
"OX c #BCBDBC",
"+X c #A59397",
"@X c #D5AD91",
"#X c #F1BD9B",
"$X c #E9B590",
"%X c #E782A3",
"&X c #E3BDA5",
"*X c #BBC9B8",
"=X c #F0D89C",
"-X c #FFF588",
";X c #FEF49A",
":X c #C1CCBF",
">X c #F2C7AA",
",X c #F3CBB1",
"<X c #E5CAAE",
"1X c #FFF8A8",
"2X c #FFF9B1",
"3X c #C3C3C3",
"4X c #CBCBCB",
"5X c #D5D5D5",
"6X c gray86",
"7X c #CBD1CA",
"8X c #FEF9C5",
"9X c #FFFCDD",
"0X c #FFFCD7",
"qX c #F9EDDB",
"wX c #ECECEC",
"eX c #E3E3E3",
"rX c #FFFDEA",
"tX c #FEFEFE",
"yX c #FEFDF4",
"uX c #F4EFE8",
"iX c #EADECE",
/* pixels */
"M ' ' ' ! ' ' ' ' ' ' ' ' ' ' ' ' ! ! ! V ! ! ! ! ! ! ' ' ' ' ' ' ' ' ' ' ! ! m W W m E W m W W ! ! ! ! ! ] ! ] ' ' ' ' ' ' ' ' ",
"M ' ' ' ' ' ' ' ' ' ' ' ' ' ' ' ' ' ' ' ' ' ' ' ' ' ' ' ' ' ' ' ' ' ' ' ' ! ! ! W E m E E m E W ! ! ! ! ] ] ] ! ' ' ' ' ' ' ' ' ",
"M ' ' ' ' ' ' ' ' ' ' ' ' ' ' ' ' ' ' ' ' ' ' ' ' ' ' ' ' ' ' ' ' ' ' ' ' ' ' V W E E W W W W W ! ! ! ! ] ! ] ! ' ! ] ' ' ' ' ' ",
"M ' ' ' ' ' ' ' ' ' ' ' ' ' ' ' ' ' ' ' ' ' ' ' ' ' ' ' ' ' ' ' ' ' ' ' ' ' ' W ! W ! W W W W ! ! ! ] ! ! ] ! ] ' ' ' ' ! ' ' ' ",
"M ' ' ' ' ' ' ' ' ' ' ' ' ' ' ' ' ' ' ' ' ' ' ' ' ' ! C h h h h h h ' ' ' ' ' ' ! ! ! ! ! ! ! ! ! ! ! ] ] ! ! ] ' ' ' ' ] ' ' ' ",
"M ' ' ' ' ' ' ' ' ' ' ' ' ' ' ' ' ' ' ' ' ' ' ' ] v v Z z ,.4.6.2.,.Z v V ' ' ' ] ! ! ! ! ! ! ! ! ] ] ! ! ] ] ! ' ] ! ' ' ' ' ' ",
"M ' ' ' ' ' ' ' ' ' ' ' ' ' ' ' ' ' ' ' ' ' ' ' V H >.1.4.v.B.R.W.J.,.F G V ' ' ] ! ' ] ' ' ] ] ] ! ] ] ] ! ] ] ' ' ' ' ' ' ' ' ",
"M ' ' ' ' ' ' ' ' ' ' ' ' ' ' ' ' ' ' ' ' ' ] v l c.N.B.b.M.M.=XtXyXT.m.5.h ' ' ] ] ] ] ' ' ! ] ! ] ] ! ! ] ] ! ' ' ' ' ' ' ' ' ",
"E ' ' ' ' ' ' ' ' ' ' ' ' ' ' ' ! ] ! ! ] ! v z v.qX-X-XrXU.Z.Z.E.tXtXE.B.c.l V ! ] ] ] ] ] ] ! ' ' ' ' ' ' ' ] ' ' ' ! ] ' ' ' ",
"M ' ' ' ' ' ' ' ' ' ' ' ' ' ' ' ] ! ] ] ! ] v 7.<XyX9X0XrXU.1X8X2X-XyXE.Z.n.l V ! ' ] ' ! ] ! ] ' ' ' ' ' ' ' ! ' ' ' ' ' ' ' ' ",
"M ' ' ' ' ' ' ' ' ' ' ' ' ! ' ' ! ] ] ! ] C G S.uX8XrX0X2X-XrX0X;XY.1XU.Z.C.,.Z V ' ' ' ] ! ] ] ! ] ' ' ' ' ' ' ' ' ' ' ' ' ' ' ",
"M W ! ! ! ' ' ' ' ' ' ' ' ' ' ' ] ] ! ] ] j <.J.8XT.2X2XU.8XyX;XA.Z.A.Z.A.B.v.F v ! ! ! ! ] ! ! ' ' ' ' ' ' ' ' ' ' ' ' ' ' ' ' ",
"n W ! W ! ! ! ' ' ' ' ' ' ' ' ' ! ] ! ! ! j <.m.U.Z.2X2XZ.U.9X=XN.A.M.A.C.M.v.F v W ! ! ! ! ! ] ' ' ' ' ' ' ' ' ' ' ' ' ' ' ' ' ",
"n W W W ! ! ' ' ' ' ' ' ' ' ' ' ] ! ] ] ' v <.N.A.Z.T.T.A.N.W.v.6.A.6.n.c.6.H.k y W E ! ! ! ] ! ' ' ' ' ' ' ' ' ' ' ' ' ' ' ! ' ",
"n E W ! ! ! ' ' ' ' ' ' ' ' ' ' ! ] ] ! ' , g z.A.N.A.A.N.6.U h D N.f H.0.g 9.- 9 E W W ! ! ! ] ' ' ' ' ' ' ' ' ! ] ' ' ! ] ] ] ",
"b m W W W ! ' ' ' ' ' ' ' ' ' ' ] ] ! ] ! 4 < 4.N.M.B.B.v.3.O.^ x P f P v + f > b E ! W W ! ! ! ' ' ' ' ' ' ' ' ' ' ' ' ] ! ] ! ",
"n E E W ! ! ! ! ' ' ' ' ' ' ' ' ' ' ' ' ' 8 < 1.c.b.B.N.c.3.iX%X:.> >.= o . $ n W W ' W W ' ' ' ' ' ! ] ] ! ] ! ] ] ] ! ] ] ! ] ",
"n E W E W ! ! ! ' ' ' ' ' ' ' ' ' ' ' ' ' W e = >.c.b.z.>.H.uX+X..@XP.<.f $ W W ' W ' W ' ' ' ' ' ' ! ] ! ] ! ] ] ! ! ] ] ! ] ! ",
"b E E W ! ! ! ! ' ' ' ' ' ' ' ' ' ' ' ' ' ' W C >.H.J.8.- L.#X&X@X,X>X3.g $ ' ' ' ' ' ' ' ' ' ' ' ' ] ! ! ] ! ] ! ] ] ! ] ! ] ! ",
"b E W W ! ! ! ! ' ' ' ' ' ' ' ' ' ' ' ' ' ' ' K f 5.H.8.+ 0.#X@XS.K.$XL k r ' ' ' ' ' ' ' ' ' ' ' ] ! ] ] ! ] ] ] ! ! ] ! ] ! ] ",
"m W ! ! ! ! ! ~ ' ' ' ' ' ' ' ' ' ' ' ' ' ' ' b @ g 9.7.< D G.S.4.4.t.r 9 ' ' ' ' ' ' ' ' ' ' ' ' ' ] ! ] ] ] ! ' ' ' ' ] ! ] ! ",
"n W ! ! ! ! ] ] ' ' ' ' ' ' ' ' ' ' ' ' ' ' W s - 1 1 P x.> : O.@XK.+ n ! ' ' ' ' ' ' ' ' ' ' ' ' ' ! ] ] ! ! ] ' ' ' ' ] ] ! ] ",
"m W ! ! ! ] ] ] ' ' ' ' ' ' ' ' ' ' ' ' ' ' u 0 _.OX3Xh.> a.S...- + . n ' ' ' ' ' ' ' ' ' ' ' ' ' ' ! ! ! ] ] ! ' ' ' ' ' ] ] ] ",
"m ! ! ! ] ! ] ! ' ' ' ' ' ' ' ' ' ' ' ' ' ' w i OXwXwX`.# a.P +.y.y.w.e u ' ' ' ' ' ' ' ' ' ' ' ' ' ] ] ] ! ! ] ' ' ' ' ' ! ] ! ",
"m ! ! ! ' ' ' ' ' ' ' ' ' ' ' ' ' ' ' ' ' s s &.4XwXwX Xs D.J +.y.y.w.e q i ] ' ' ' ' ' ' ' ' ' ' ' ' ' ' ' ' ' ' ! ! ! ! ! ! ! ",
"m ! ! ! ' ' ' ' ' ' ' ' ' ' ' ' ' ' ' ' n 9  .3X5X5X4X).=.OX'.X.#   . A S & ' ' ' ' ' ' ' ' ' ' ' ' ' ' ' ' ' ' ! ! ! ! W ! W ! ",
"N ' ! ' ' ' ' ' ' ' ' ' ' ' ' ' ' ' ! N % ` _.3X4XOX/.&.h.4X3X{.s.O O X.A $ m ] ' ' ' ' ' ' ' ' ' ' ' ' ' ' ' ' ! ! ! W W W W W ",
"N ' ' ' ' ' ' ' ' ' ' ' ' ' ' ' ' ' M $ ` /.oXoX/.oX/./.3X5X5X3X*Xo.I '.*.. % M ' ' ' ' ' ' ' ' ' ' ' ' ' ' ' ' ! V m W W E W E ",
"M ' ' ' ' ' ' ' W ' ! ! ! ' ' ' ' b y =. XoXOXoX).@.S =.3X}.7X*X].l.'.h.{   o n ] ] ' ' ' ' ' ' ' ' ' ' ' ' ' ' W W W m E E E W ",
"M ' ' W ' ' ! ! ' W ! ! W ! ' ' ' w 7  X4X3X X(.^.w . ` ).j.XX}.].].}.h.J $ s u E ' ' ' ' ' ' ' ' ' ' ' ' ' ' ' W W W m E m E E ",
"N ' ' ! W W W W W W W W ' ' ' ' ' w % &..XOX&.. . n 7 i &.&.j.}.5X7Xk.XX=.0 .X7 w W ' ' ' ' ' ' ' ' ' ' ' ' ' ! ! W W m m m W E ",
"M ' ' ! ' W ! W W W ! W W ' ' . . | 6X5X^.0 7 ! ' ' W w % .XOXOXXXl.d.o.S 0 OXOX| 4 ' ' ' ' ' ' ' ' ' ' ' ' ' ' W W W E E m m W ",
"m ! ! ! ! W W E W E E W W n @ t.k | 4X5X) w E ' ' ' ! W n 0 &.).OX Xp.[.(._ d  X| 4 ! ! ' ' ' ' ' ' ' ' ' ' ' ! W W E W E W E E ",
"n ! ! ! W W W W E W E W p r w.G.w.+.%.3X0 w ' ! ! ' ! ! M   6 a _ | `.oX).| O &.-.} 4 4 4 n ' ' ' ' ' ' ' ' ' ' ' W W W W E E W ",
"N ' ! W W W E m E E E p 0 B K./.G...7 ^.w u W W ! ! ! ! E   6 t t S -.^.&.) 6 / _.=.* v c c p p ' ' ' ' ' ' ' ' ' ! W W W W W W ",
"N ' ! ! ! W W E m E E % 0 &.&.,X/.) .   s E W W W ! ! ! Q   g.~.~.Q.@ X X O ( * &.=., P.P.L .   ' ' ' ' ' ' ' ' ' W ' ' W W ' ' ",
"M ' ' W W E E E E E E % ..@XX &.8 L r.. p W E W W ! W ! E   / g.~.~.~.~.Q.( ( #   v P.,X,X,X#XP.. n ' ' ' ' ' ' ' ' ' ' ' ' ' ' ",
"M ' ' ' ! W W W W E E b b b X 7 7.q.c u m E E W E W ! ! N   g.~.|.|.|.g.Q.!.( # 4 c ..<X+.K O.#X. n ' ' ' ' ' ' ' ' ' ' ' ' ' ' ",
"M ' ' ' ! W ! W W E W ! s 4 4   L L 9 m E E E m E W W n 9   / $.#.#.#./ / $.t @ w w r @Xr % u y.L e M ' ' ' ' ' ' ' ' ' ' ' ' ' ",
"M ' ' ' ! W ! ! W ! W ! ! ! ' & & 9 W W E m m m W W m w % % 8 9 7 ; X $ $ X : X 4 w , e.r u s $ r.- w ' ' ' ' ' ' ' ' ' ' ' ' ' ",
"M ' ' ' W ' ' ' ' ' ' ! ' ' ' ' ! ! W m m m m m E W 4 w &.&..XOXXXa.$  .) ; a.; . > n @ E ! ! ] . . w ' ' ' ' ' ' ' ' ' ' ' ' ' ",
"M ' ' ' ' ' ' ' ' ' ' ' ' ' ' ' ! ! ! m W W W E W $ / *.=.oXOXOXXXa.$ | ) ; k.:X .7 ' ' ] ! ] ! W ' ' ' ' ' ' ' ' ' ' ' ' ' ' ' ",
"M ' ' ' ' ' ' ' ] ] ' ' ' ] ' ' ! ! W W W W W n > a =.).).3X4XXXh.S . ^./.*.A h.(.) 9 ' ! ] ] ! ' ' ' ' ' ' ' ' ' ' ' ' ' ' ' ' ",
"M ' ' ' ' ' ' ' ] ] ] ] ' ' ] ' ! ! ! W W W W b o  .'.XX3X5X6X}.i.. 4  .(.^.# i.].;.$ ' ] ] ! ] ' ' ' ' ' ' ' ' ' ' ' ' ' ' ' ' ",
"M ' ' ' ' ' ' ' ' ' ] ] ] ] ] ! ' ! ! ! ! ! ! m % I p.h.XX:X:X'.I % W $ i  .6 X.i.J w n W ! ] ! ' ' ' ' ' ' ' ' ' ' ' ' ' ' ' ' ",
"M ' ' ' ' ' ' ' ' ' ' ' ' ' ' ! ' ' ! ! ! ! ! ! N % # A k.k.k.I ; W ! $ 0 &. .> O | /.& E ! ] ! ' ' ' ' ' ' ' ' ' ' ' ' ' ' ' ' ",
"M ' ' ' ' ' ' ' ' ' ! ! ' ! ! ! ' ' ' ' ! ! ! m % -.).*.; ; p.A $ ! ! E y 0 *. .D. XoX^.9 u ! ! ' ' ' ' ' ' ' ' ' ' ' ' ' ' ' ' ",
"M ' ' ' ' ' ' ' ! ! ! W ! ! ! ! ! ! ' ! ' ! n w  ..XOX).%.+ S d w ! ! ] n 9 R %.^._.)..X| 0 u ! ' ' ' ' ' ' ' ' ' ' ' ' ' ' ' ' ",
"M ' ' ' ' ' ' ' ! W W W ! ! W W ! ! ! ' ' W s ` .XOX3X5X4X% $ w ' ' ' ' ' M % ` %.&.-. X-.i % ' ' ' ' ' ' ' ' ' ' ' ' ' ' ' ' ' ",
"M ' ' ' ' ' ' ! ! W W W m E W W W ! ! ! W 9 | oXoXOXeXtXeX7 s ' ' ' ' ' ' ' E % R %.&.&.&.d - W ' ' ' ' ' ' ' ' ' ' ' ' ' ' ' ' ",
"M ' ' ' ' ' ' ' ! W W E W E m E W W W ! % &._.=.=..X7X6X3X% n ' ' ' ' ' ' ' ! W 8 a &.&.&.%.` . ' ' ' ' ' ' ' ' ' ' ' ' ' ' ' ' ",
"M ' ' ' ' ' ' ! W W W m m m m W W W ! ! $ =.).&.&..XOX/.i n W ' ' ' ' ' ' ' ' ' > 0 &.&.&.&.[   ' ' ' ' ' ' ' ' ' W ' ' ' W ' W ",
"M ' ' ' ' ' ' ! W W W m m m E W W W E 9 } )..X/.=./.=._ w W ' ' ' ' ' ' ' ' ' ' p y ) &.&.&.[   9 Q ' ' ' ' ' ' ! ! ! W W W W W ",
"M ' ' ' ' ' ' ' W W E m m E m W W E u 0 ).OXOX.X=. .0 9 ' ' ' ' ' ' ' ' ' ' ' ' ] i 4  .*.&.| % % u W ' ' ' ' ' ! W W W W W W ! ",
"M ' ' ' ' ' ' W ! W W W W m E W E y a OXOXoXoX X&.1 e ' ' ' ' ' ' ' ' ' ' ' ! ' ' ! s $ | &.&.&.&.% w ' ] ] ' ' W W W W m W W W ",
"M ' ' ' ' ' ' ' ! W W E W W W W 4 _ oX5X/.-.-.%.7 u W ' ' ' ' ' ' ' ' ' ' ' ' ' ' ! s $  .&.&.&.&.% w ' ] ] ' ' ! ! m W m W N m ",
"M ' ' ' ' ' ' ' ! ! W W W W W W % | 4X6XoX.X_.| $ n ' ' ' ' ' ' ' ' ' ' ' ' ' ' ] ! W w y | &.&.y w E ] ] ] ] ! W W E m E E W W ",
"M ' ' ' ' ! ' ' ! ! ! ! ! W ! ' w Q u..X.X.X^.a 4 Q ' ' ' ' ' ' ' ' ' ' ' ' ' ' ! ] ] Q $ i @.y.L u a ! ' ' ' ! ! W W E m m m m ",
"N ' ' ' ' ' ' ' ! ! ! ! ' ! ! ! ! w - u.u.&.R $ W ! ' ' ' ' ' ' ' ' ' ' ' ' ' ' ] ! ! W $ 2 ~ K.K.8 9 E ' ' ! ! W W W E m m E W ",
"M ' ' ' ' ' ' ' ! ! ' ' ' ' ' ' W w 8 L.L...2 $ E ' ' ' ' ' ' ' ' ' ' ' ' ' ' ' ! ] ] W 1 2 Y Y Y Y 1 4 W ' ] ! ! W W W W W E W ",
"M ' ' ' ' ' ' ' ' ' ' ' ' ' ' ' 4 1 5 ~ ~ R 2 $ E ' ' ' ' ' ' ' ' ' ' ' ' ' ' ' ] ! ] ! E 4 1 Y T T T 3 $ ! ! ] ! W W W W W W W ",
"M ' ' ' ' ' ' ' ' ' ' ' ' ' ! 7 5 Y T T Y 3 @ $ W ] ' ' ' ' ' ' ' ' ' ' ' ' ' ' ! ] ! ] W 4 @ 1 2 1 1 1 . ' ] ! ! ! ! ! W W W ! ",
"M ' ' ' ' ' ' ' ' ' ' ' ' ' ! . 2 Y Y Y 3 2 % 7 W ' ' ' ' ' ' ' ' ' ' ' ' ' ' ' ] ! ! ! ! 0 % % % % - % % ' ' ' ' ! ! ! ! ! ! ! ",
"M ' ' ' ' ' ' ' ' ' ' ' ' ' '             w ' ' ] ' ' ' ' ' ' ' ' ' ' ' ' ' ' ' ] ! ] ! ! ! ] ! ! ! ! ! ' ' ' ' ' ' ' ' ! ' ' ' "
};
