/* XPM */
static char *_21517e808a44a3ed8bdb822987c9d23FG3S6LjG7hAdgdDo[] = {
/* columns rows colors chars-per-pixel */
"64 64 226 2 ",
"   c None",
".  c #040505",
"X  c #060807",
"o  c #080807",
"O  c #060709",
"+  c #0B0B0B",
"@  c #070908",
"#  c #110D09",
"$  c #0E130D",
"%  c #1A130C",
"&  c #17130A",
"*  c #0F0E18",
"=  c #0D1511",
"-  c #141414",
";  c #151C13",
":  c #1B1B1B",
">  c #171419",
",  c #261908",
"<  c #241B15",
"1  c #19231B",
"2  c #26281B",
"3  c #33251A",
"4  c #372818",
"5  c #22311E",
"6  c #181629",
"7  c #1C1A34",
"8  c #1E1C3A",
"9  c #201F3E",
"0  c #1B2C26",
"q  c #242424",
"w  c #2C2C2C",
"e  c #292827",
"r  c #372C25",
"t  c #263A27",
"y  c #2B3A34",
"u  c #343434",
"i  c #3B3B3B",
"p  c #383938",
"a  c #33302D",
"s  c #482805",
"d  c #592806",
"f  c #583505",
"g  c #422D1B",
"h  c #4E380E",
"j  c #612700",
"k  c #642A01",
"l  c #682F02",
"z  c #673704",
"x  c #733A08",
"c  c #402D20",
"v  c #583B27",
"b  c #4C382A",
"n  c #792B3F",
"m  c #31482C",
"M  c #2A4138",
"N  c #354639",
"B  c #3B5635",
"V  c #2E462A",
"C  c #7B4503",
"Z  c #764C11",
"A  c #5F402B",
"S  c #505034",
"D  c #64432E",
"F  c #6A4832",
"G  c #7D5B3D",
"H  c #476A3F",
"J  c #221F41",
"K  c #25234A",
"L  c #262248",
"P  c #352C4A",
"I  c #2A2754",
"U  c #2C2859",
"Y  c #3B3250",
"T  c #4A3A51",
"R  c #394843",
"E  c #3B6858",
"W  c #434443",
"Q  c #4C4C4C",
"!  c #494746",
"~  c #555555",
"^  c #5C5C5C",
"/  c #585857",
"(  c #52514B",
")  c #7A5A46",
"_  c #6E5754",
"`  c #4B6944",
"'  c #547A4A",
"]  c #4F734F",
"[  c #7A6758",
"{  c #4F7265",
"}  c #646464",
"|  c #6C6C6C",
" . c #696866",
".. c #746A65",
"X. c #737373",
"o. c #7B7C7B",
"O. c #72706F",
"+. c #9B0532",
"@. c #875205",
"#. c #8E5613",
"$. c #986417",
"%. c #936E11",
"&. c #A26E1A",
"*. c #A77315",
"=. c #845534",
"-. c #9E6323",
";. c #A77824",
":. c #AB6C2E",
">. c #8A6248",
",. c #976849",
"<. c #916E53",
"1. c #B27F5D",
"2. c #AC7A59",
"3. c #937B6B",
"4. c #C07E4B",
"5. c #598850",
"6. c #67985B",
"7. c #608858",
"8. c #5D927E",
"9. c #508471",
"0. c #6C8966",
"q. c #73986B",
"w. c #75936E",
"e. c #6EA263",
"r. c #7CA673",
"t. c #77A06F",
"y. c #B6851C",
"u. c #B7921E",
"i. c #BD8926",
"p. c #BC9821",
"a. c #CA992A",
"s. c #D19B34",
"d. c #C79435",
"f. c #D4B729",
"g. c #D8A737",
"h. c #DFB238",
"j. c #CFAC2B",
"k. c #E6BB39",
"l. c #E9C339",
"z. c #E8C436",
"x. c #F1D437",
"c. c #EFD137",
"v. c #FEED39",
"b. c #FAE637",
"n. c #FFF039",
"m. c #BB8654",
"M. c #829F7C",
"N. c #9F8577",
"B. c #BA9075",
"V. c #84AF7A",
"C. c #C78659",
"Z. c #D5925C",
"A. c #D09049",
"S. c #D2A951",
"D. c #D09268",
"F. c #DCBA62",
"G. c #ECA678",
"H. c #E4AA4A",
"J. c #EFCD48",
"K. c #FFF255",
"L. c #FFF25B",
"P. c #FFF14D",
"I. c #EFD168",
"U. c #FFF476",
"Y. c #FCEB6C",
"T. c #B17E90",
"R. c #C65D82",
"E. c #689D89",
"W. c #76AD98",
"Q. c #75B29B",
"!. c #6AA38E",
"~. c #848483",
"^. c #8C8C8C",
"/. c #939393",
"(. c #9B9B9B",
"). c #969798",
"_. c #8A9B86",
"`. c #B79885",
"'. c #A19085",
"]. c #8AA984",
"[. c #90B489",
"{. c #99A696",
"}. c #9DB998",
"|. c #8DB285",
" X c #A2BD9D",
".X c #ADA79D",
"XX c #82B7A3",
"oX c #A4A4A4",
"OX c #ACACAC",
"+X c #A6ABA4",
"@X c #A9BAA6",
"#X c #B3B3B3",
"$X c #BCBCBC",
"%X c #B5BCB4",
"&X c #B0BAAF",
"*X c #DAAB85",
"=X c #D5AD92",
"-X c #D5B49F",
";X c #C6A692",
":X c #E9BA98",
">X c #ECB893",
",X c #E2BAA1",
"<X c #94C2B0",
"1X c #B9C6B6",
"2X c #FEF483",
"3X c #FFF795",
"4X c #F5E18A",
"5X c #CBC6BD",
"6X c #F1CCAA",
"7X c #FFF9AA",
"8X c #FFF8A8",
"9X c #FFFABD",
"0X c #C3C3C3",
"qX c #CCCCCC",
"wX c #C6CEC4",
"eX c #D3D3D3",
"rX c #D9D8D9",
"tX c #FFFBC7",
"yX c #FFFCDB",
"uX c #F8E6D0",
"iX c #E9E9E9",
"pX c #FEFBE9",
"aX c #FFFEF5",
"sX c #FEFDFB",
"dX c #F2F2F2",
"fX c #F5EEE3",
/* pixels */
"                                                                                                                                ",
"                                                                                                                                ",
"                                                              l l k l l l j                                                     ",
"                                                        j j k C $.a.f.f.j.d.@.d j                                               ",
"                                                      k -.;.u.y.a.h.z.Y.8X6XS.u.&.x                                             ",
"                                                      #.S.I.n.I.I.l.z.4XtXsX8XL.l.&.#.                                          ",
"                                                  j @.S.uXtXY.pX8Xb.K.L.U.yXsX9Xv.l.;.j                                         ",
"                                                  l =.fXaXaXaXaX8XK.yXpXtXP.tX9Xv.v.p.l                                         ",
"                                                j $.S.aX3X3XaX2X3XpXsX8XK.n.K.K.v.n.z.i.x                                       ",
"                                                j &.J.2XP.U.aXL.K.3XsX4Xc.v.c.x.v.x.l.s.x                                       ",
"                                                j ;.k.b.n.L.8XK.v.J.8XF.a.b.j.j.c.a.s.A.d                                       ",
"                                                s $.h.v.b.b.n.b.z.j.f.%.%.x.%.#.g.#.$.m.<                                       ",
"                                                + f *.b.k.l.v.k.i.C 4 % g d.h b C.4 s C &                                       ",
"                                                O d %.h.h.k.v.k.y.$.5XR.+.4 Z z 3 # # ,                                         ",
"                                                  , d *.a.h.k.&.:.Z.pXT.n 3.C.:.f # .                                           ",
"                                                    , @.d.H.g.f =.G.uX.XN.6X>XZ.@., .                                           ",
"                                                      C :.Z.S.3 v Z.6X:X*X*X6XD.C ,                                             ",
"                                                      + f &.C.c s #.=Xm.$.$.4.,.O                                               ",
"                                                      + & , 3 ;.Z ; r 3.*XZ.v <                                                 ",
"                                                    e o./.)./.S S ' ,.) b g & .                                                 ",
"                                                  . w 0XiXiXiXu V 6.=.) [ [ ) F                                                 ",
"                                                  w ^ eXiXdXiX~ ` q.V [ `.`.1.G 1                                               ",
"                                                - O.0XrXrXeX0Xo.^.$Xr.B - + @ 5 ` ; @                                           ",
"                                              > / ).0XeX0XoXX.O.(.eX1X].' $ @ 5 ` ; @                                           ",
"                                          . w ^ (.#X#X^.OXoXX.OXqXrXeX5X X5.H ] (.e . O                                         ",
"                                        + ^ ~.OX$X0X$X).| Q i OX1X}.eX1X[.e.M.M.w.2 . .                                         ",
"                                        = o.$XqX0X(.o.o.p . + ~._.0.<X X|.|..X{.0.1 q i                                         ",
"                                        w | /.#XoXQ O +     + ( | o.M. XeX5XV.r.oXq ~ OXu :                                     ",
"                                  % X S 0XqXoX} 6             + ~ #X#X$X&Xr.e.6.' 1 / %XOX~ .                                   ",
"                                3 2.4 Y 0XrX~.>                 6 y X.oX1X@X0.0.{.} T p OX~ .                                   ",
"                            . v ,.2.<.) / #Xo..                   X q i Q Q w.oX$X~.i + o.~.} - . . .                           ",
"                            e [ B.'.B.>.+ ^ ~ .                   X y M M y } X.O.Q p 0 i ^.(.* c D v <                         ",
"                          - .. . .-X3.! r + O                     = E.!.Q.Q.R 1 0 = M E = / ~.c m.G.G.v r r                     ",
"                          2 ;X_ : } w v 4.3 O                     + E E.Q.Q.Q.!.!.{ E E = O r C.:X6X,X-X*XC.<                   ",
"                            e : @ : >.,.r                         = 8.XX<X<X<XQ.9.W.E.E O .   3 `.`.a e <.=X<                   ",
"                                  o g b                         X O t y R R R y 0 i y 1 .     O 1.2.+   r ( ,.v .               ",
"                                  @ X                         w u p Q Q ! m = = w @ ; t X X   + F F +     > =.r O               ",
"                                                            q ^ X.~.%X0X@Xe.t q } : m 6.S 6 O   + O         X o @               ",
"                                                        O w | O./.0X0X$X+X6.5 e | w B 6.1X^ .                                   ",
"                                                      + S o.#X#X0XeXeX}.7.1 O i OXoX} 0 q.].O.+                                 ",
"                                                      + ` q.].%XqXrXrX}.5.+ X   W o.Q - 5.r.w.+                                 ",
"                                                        m B B M.}.}. X0.m +     @ / ~ p B B B ^ w                               ",
"                                                        u p i H ` ' 6.m .       + W ^ } w w ~ $X} e                             ",
"                                                      6 ^.$X#XW ; ; ' V X         O a } } /.OX$X$X~.-                           ",
"                                                  O w (.#X0X0X0XX.X ;                 : } O.X.X.oX(.^ :                         ",
"                                                . / (.0X$XqXiXsX^..                     : Q | | o.o. .: X                       ",
"                                              : ^ ~././.OXeXiXdX^..                       q W  .| | | ! w                       ",
"                                              : oX/. . .oX0XqX(./ .                       X : } | | | | W O                     ",
"                                              p OX/.X.| (.OX(.w                             : / } | | | N o                     ",
"                                          + ~ OX$X$XoXO.| ~ -                                 - Q  .| | T + +                   ",
"                                        $ o.oX$X$X0XOXO.u :                                     : u | | } ~ ~ a X               ",
"                                      u ~.0X#X^.^.^.o.p :                                       . q | | | | O.u X               ",
"                                    . ! qXrX$X/./.o.~ +                                           q ! } | } T e                 ",
"                                    . i (.$X0X0X0X^.Q +                                             + Q O...c 3                 ",
"                                        - ^ X.X.| p +                                               + 9 _ D.D.v O               ",
"                                        +       Y 6 O                                               + 9 Y T T P 7 +             ",
"                                      * 7 P Y Y K 6 O                                                 * 7 K U U I J *           ",
"                                    6 8 I I K L 7 * o                                                 X * 6 8 8 8 8 * o         ",
"                                  @ 7 K L L J 8 + @ @                                                 @ + O @ @ O o @ @         ",
"                                  @ + + + + + +                                                                                 ",
"                                                                                                                                ",
"                                                                                                                                ",
"                                                                                                                                ",
"                                                                                                                                "
};
