/* XPM */
static char *result[] = {
/* columns rows colors chars-per-pixel */
"64 64 41 1 ",
"  c #2E3747",
". c #2F3748",
"X c #2F3848",
"o c #323B4C",
"O c #353E50",
"+ c #374053",
"@ c #3A4356",
"# c #3C465A",
"$ c #3E495E",
"% c #3F4A60",
"& c #404A5F",
"* c #424E63",
"= c #455167",
"- c #465269",
"; c #49556C",
": c #4B586F",
"> c #4A5670",
", c #4C5973",
"< c #4F5D78",
"1 c #505D76",
"2 c #515E79",
"3 c #53617C",
"4 c #58657F",
"5 c #566582",
"6 c #586785",
"7 c #5B6985",
"8 c #5C6B8A",
"9 c #606F8C",
"0 c #62718E",
"q c #606F90",
"w c #647494",
"e c #687796",
"r c #697997",
"t c #677798",
"y c #6C7B9B",
"u c #6F7FA0",
"i c #70809F",
"p c #6F80A1",
"a c #7182A2",
"s c #7687A8",
"d c #7889AA",
/* pixels */
"==%$+oX  XoXXoXXoXo.Xo......  oo&&&&@o  oXo.o .o..o..XXo.....o..",
"==*$++ooooooooooooooooooOOoooXO&&&=&@Ooooooooooooooooooooooooooo",
"=%*%$@@@+@@@@@@@@@@@@@@@O&&O&o&&&==&&@@@@@@@@&+@O&&O&O&&&&O@&+&+",
"====-;;:;::;:;::;;::;:;:;;;;;;=;==&==;;;;;;;;;;;;;;;;==;;;;;=;;;",
"%==:3447797999497777776694949441;==:1477977977779449499494944444",
"%%-17eriyrrrrrrryryyyyyyyyyyuye4:==:4eyyyyrryyyyyyyryyryyyyyryyu",
"%%:30issiiuuiuiiapiaaiuuuuiassy01-=30yssaauuuauuuuuuiiiiuuiaiuaa",
"%=:3wisdaauuuuuuuuypyiuuyuussdi03-=30iddauuuuuuuuuuuyiuuuuuaaddd",
"**=9esssiyttttttwwtwttttrtrpddi03--30iddiyeettttwwwwtwwweeeyussd",
"&*-20uuur0888888qq8qq88888qriai91-=30iiir0888888qqqqq9q9999wuusu",
"&&=19wre86555565555555555558wr09:**:4rre855355555555555522990ery",
"O&&=12621,;-->>,<<<,,>;-;-:1444:*&&=:343<,>;;;>,<<<<>>;;;;;,2429",
"OOO&=---**#&#%%%;;>;*$#$##%%=-*&@++@&*==%$####&*->>-=&&@@&&&====",
"oooOOOOOoOOOOoOO%=-%#+OoOOOO++++++++++++OOOoOO@#****@OoOOOOOO+++",
"O&@@OO#OOOO#OO%%$**$$@@@@+@++@+@+@@@+@@+@@@@@@@#$***&@+@++@@@+@@",
"=;;===------>==*****====----=====;;=====-=---=*=****====;=======",
"9994944977777741;**;149477777777949969664949494,-*=>:29994494494",
"ewryeeeerrryyr99:=*170ryyyrreerreeeyweeterryyr09>-=,9wrrrwryrrrr",
"uuuiiiuuuuuusay91--19yssppppiiipuuuuuuuuuuusudy91-*<9yuduauuuuuu",
"yyyyuyyyyuuussu01-=10isspuyyyyyyyyyyyyuuyyuuudu01--<wudduuuyyyyy",
"wtqte9wwwqtuusyq1--10idauwwqwwwte9wwwwww00wyuuuq1-=1quuuyttqe0ww",
"88889979688ryay91-*19iauwq88888899796qq6999wyuuw1-=19yuuqq789999",
"68666867688qyur91-=17eyrq885668668776866669qyuw9,-=19eyyqq666666",
"66868776678qtyt71-=;499088588868866666q6669qwyw9,;=19weeq8868877",
"88888888888qtwq61-=-:3357888888888888888989qqwq6,-=<6qwwqq888888",
"88868888688q8q75,-**=-:,46888888686886886989qq65>-=>57qq88888888",
"6666555555556521;=*$$$*;<5665555666666665556555,-==;,55666555555",
"5<5<,,,>>>>>>>;*%##@++#$%;,,>>,,<25,>>>>>>>;>>==*&O**-;;>>>>>>>>",
">>,;%%$#%%%%%#&#@++oo+++#$%$$$$=;>>;%%%%$$$$&&@&OOOO@&&&&&&&%%%#",
"--%%#@OOOOOOOOOOOoooooooOOOOOo+#%==*%OOoOOOOOOOOooOOOOoOoooOOOOo",
"%-%%#@++@@@OOO#@@#@##@#@@@#++@@#%%*%%@OO@@@@O@@@@@#O@@@@O#O&#OO#",
"%%%-=---==--;--;-;-;-;-;--==-====*%**-->==;=;=--;;;;---=--=--=--",
"%$=:1477777777767778787877777741;%*;1477777777779494777777777447",
"&=-,7errrrryrtttrrrrrrrtrrryiy07,-*,7wryryrrrrryeeryrrrrrrrreeee",
"*=-30iasaappipppiiipiippiiippsi8<-=<9iasaauuuauaaiuippppiapaaaaa",
"$$=40issaiyyyiuuiiyyyiyyyyiissi0<-=<0issuuyuyyyyyyyyyyuyyyypaaad",
"%%-40issyrwwwwwwwwwwtwww0wwypai01-=30iaautqwqwwwewtwwwwwwweriass",
"%==30iiyw9868qq888888888888ripy9,==17yait886888879888888668wriii",
"%%-38yutw865555566888668668wrii81--18ryyq8668688768668666680eyii",
"%==38tttw8655<<5566786866689ttw8,--17trrq8868866666886866888wryy",
"==-170wwqq65<,,<5688q888888qwwq6,--,6wwwqq88888q88688888q88qqwww",
"%*-,47qqqq65,-;,368888888888qq65,==,268q888888868688888788888q8q",
"%%=:<666555,;%%;<56685555544653<-*=-1545555555556655556555555555",
"###%%%>>,,;*#@%%:<33,>,;::::>>%;$$$$*-:;>>>,>>><<552,>>;>>>>;;;;",
"++@@%#$%&&$#+++#-;,;%%%##$$####@@+++@&&&%%*&#&**->>>**&&#%%#%%##",
"Xoo+++X+o+oOXX+@%=-%%+OO++++++++ooOo+oOOOOOOooOO%=*%&OooOOOOOOOO",
"@@@@@@@@@@@@@@#$%%%%$+++@@@@@@@#@@@@@@@@OO&OOO&&%%%%&@@@@@@@@@++",
";;-------=;------%=%*---=--===-%;;;---=;---=--===*%=*==*--------",
"7777777774787743:%-,1434444434544777755574744441>=%>147777777777",
"rrrrytrrrrryyrw41%%13iiiiiiiiwiiiwiwiwiwiwiiiiw4,==,70rrrrrrrrrr",
"iiaippppiiipssi91-%17iaspiiippppiiiiiippiipaaai8,-=<8iassaiaiaii",
"yyiiyyyyiyppasi93%:10isspiiiwpppiipwiippwiiasdp01--<0pssiiyyyyyy",
"wwwwwwwwwwwyisi81%:38pppwwwwwwpq0wwwwwww0wtpppp0<-=10isaytwwwwww",
"88888868689wiiy01:%39pppi888888878888888788wipt81--19yayw8888888",
"66888688688qrir91%%18ipw8866558586865858667wipi8,-=18ryrw8666877",
"866678666889rrw71:%,70pw8866685866868586867q0i08,-=,7eyeq8866666",
"88888888888qww85<%%,50pqq8688888888888888888ww85<%%,6qwwq8688888",
"8866686886888q63<%:,3888888868788686868888888883,,%<368q88886886",
"856666765688655<:%%:<38666666676666658555666855<:%%<<56656666666",
"<<3333353<<<33<,<%%;:<<3<333<33<<333<<<5333333<:,%%%,,<53<5<5<<5",
",,,>:,:<,,,,,,:;:%%::<<<,<<,<<,,,3>,,<<<::,:,,,:%%:%,,>,,,,,>>>>",
"%;>%;;%%%-%--%;%%%:%%%%%%%%%%,%:%%%:%%%%-:%:%:%%:%%:%;%;%;%-==--",
"%;%%-%-%%-%-%-%%%::%%%%:%%%%%%%%%%;%%;%;-%%%%%%;%:%%;%-%%%%=-%%%",
"%%%%%%%-%%%-%%%-:%%%%:%%:%%,%%:%%:%%%%%%%%-%:%%;%%%:%%%%%;=%%%-%"
};
